<?xml version="1.0" encoding="UTF-8" standalone="no"?>
<!-- Created with Inkscape (http://www.inkscape.org/) -->
<svg
   xmlns:dc="http://purl.org/dc/elements/1.1/"
   xmlns:cc="http://creativecommons.org/ns#"
   xmlns:rdf="http://www.w3.org/1999/02/22-rdf-syntax-ns#"
   xmlns:svg="http://www.w3.org/2000/svg"
   xmlns="http://www.w3.org/2000/svg"
   xmlns:sodipodi="http://sodipodi.sourceforge.net/DTD/sodipodi-0.dtd"
   xmlns:inkscape="http://www.inkscape.org/namespaces/inkscape"
   width="750"
   height="500"
   id="svg2"
   sodipodi:version="0.32"
   inkscape:version="0.46"
   version="1.0"
   sodipodi:docname="Bandera_de_Córdoba.svg"
   inkscape:output_extension="org.inkscape.output.svg.inkscape">
  <defs
     id="defs4">
    <inkscape:perspective
       sodipodi:type="inkscape:persp3d"
       inkscape:vp_x="0 : 250 : 1"
       inkscape:vp_y="0 : 1000 : 0"
       inkscape:vp_z="750 : 250 : 1"
       inkscape:persp3d-origin="375 : 166.66667 : 1"
       id="perspective9" />
    <inkscape:perspective
       sodipodi:type="inkscape:persp3d"
       inkscape:vp_x="0 : 526.18109 : 1"
       inkscape:vp_y="0 : 1000 : 0"
       inkscape:vp_z="744.09448 : 526.18109 : 1"
       inkscape:persp3d-origin="372.04724 : 350.78739 : 1"
       id="perspective3587" />
    <inkscape:perspective
       sodipodi:type="inkscape:persp3d"
       inkscape:vp_x="0 : 526.18109 : 1"
       inkscape:vp_y="0 : 1000 : 0"
       inkscape:vp_z="744.09448 : 526.18109 : 1"
       inkscape:persp3d-origin="372.04724 : 350.78739 : 1"
       id="perspective2447" />
    <inkscape:perspective
       id="perspective10"
       inkscape:persp3d-origin="372.04724 : 350.78739 : 1"
       inkscape:vp_z="744.09448 : 526.18109 : 1"
       inkscape:vp_y="0 : 1000 : 0"
       inkscape:vp_x="0 : 526.18109 : 1"
       sodipodi:type="inkscape:persp3d" />
    <inkscape:perspective
       id="perspective2594"
       inkscape:persp3d-origin="372.04724 : 350.78739 : 1"
       inkscape:vp_z="744.09448 : 526.18109 : 1"
       inkscape:vp_y="0 : 1000 : 0"
       inkscape:vp_x="0 : 526.18109 : 1"
       sodipodi:type="inkscape:persp3d" />
  </defs>
  <sodipodi:namedview
     id="base"
     pagecolor="#ffffff"
     bordercolor="#666666"
     borderopacity="1.0"
     inkscape:pageopacity="0.0"
     inkscape:pageshadow="2"
     inkscape:zoom="0.5"
     inkscape:cx="371.63924"
     inkscape:cy="183.13053"
     inkscape:document-units="px"
     inkscape:current-layer="layer1"
     showgrid="false"
     inkscape:window-width="1024"
     inkscape:window-height="712"
     inkscape:window-x="0"
     inkscape:window-y="22" />
  <metadata
     id="metadata7">
    <rdf:RDF>
      <cc:Work
         rdf:about="">
        <dc:format>image/svg+xml</dc:format>
        <dc:type
           rdf:resource="http://purl.org/dc/dcmitype/StillImage" />
        <dc:title>Bandera de Villanueva Mesía</dc:title>
        <dc:date>26-junio-2008</dc:date>
        <dc:creator>
          <cc:Agent>
            <dc:title>Xavi Garcia</dc:title>
          </cc:Agent>
        </dc:creator>
      </cc:Work>
    </rdf:RDF>
  </metadata>
  <g
     inkscape:label="Capa 1"
     inkscape:groupmode="layer"
     id="layer1">
    <g
       id="g4262">
      <path
         id="path3451"
         d="M -3e-07,1.3393568e-05 L -3e-07,250.00001 L -3e-07,500 L 374.99999,500 L 749.99997,500 L 749.99997,250.00001 L 749.99997,1.3393568e-05 L 374.99999,1.3393568e-05 L -3e-07,1.3393568e-05 z"
         style="fill:#881536;fill-opacity:1" />
      <g
         id="g4110">
        <path
           sodipodi:type="arc"
           style="fill:#0263c4;fill-opacity:1;fill-rule:nonzero;stroke:#8d7142;stroke-width:4.60215235;stroke-linecap:butt;stroke-linejoin:miter;stroke-miterlimit:4;stroke-dasharray:none;stroke-opacity:1"
           id="path3522"
           sodipodi:cx="-637.14288"
           sodipodi:cy="-297.14285"
           sodipodi:rx="111.42857"
           sodipodi:ry="112.85714"
           d="M -525.71431,-297.14285 A 111.42857,112.85714 0 1 1 -748.57146,-297.14285 A 111.42857,112.85714 0 1 1 -525.71431,-297.14285 z"
           transform="matrix(0.7890652,0,0,0.7290027,878.53312,466.49688)" />
        <g
           id="g3961"
           transform="translate(-999.99996,0)">
          <rect
             y="272.69977"
             x="1434.739"
             height="11.652542"
             width="10.127781"
             id="rect3405"
             style="fill:#8d7142;fill-opacity:1;fill-rule:nonzero;stroke:#502c17;stroke-width:0.59288543;stroke-linecap:butt;stroke-linejoin:miter;stroke-miterlimit:4;stroke-dasharray:none;stroke-opacity:1" />
          <g
             transform="matrix(0.8465011,0,0,0.8474576,2771.7269,-201.15437)"
             id="g3358">
            <rect
               style="opacity:1;fill:#8d7142;fill-opacity:1;fill-rule:nonzero;stroke:#502c17;stroke-width:0.97205913;stroke-linecap:butt;stroke-linejoin:miter;stroke-miterlimit:4;stroke-dasharray:none;stroke-opacity:1"
               id="rect3354"
               width="27.358341"
               height="27.841755"
               x="-1733.014"
               y="513.82013" />
            <path
               style="fill:#b50128;fill-opacity:1;fill-rule:evenodd;stroke:#502c17;stroke-width:0.70679533;stroke-linecap:butt;stroke-linejoin:miter;stroke-miterlimit:4;stroke-dasharray:none;stroke-opacity:1"
               d="M -1733.4334,513.83268 L -1705.3453,513.83268 L -1707.9222,506.0108 L -1729.568,506.13696 L -1733.4334,513.83268 z"
               id="path3356" />
          </g>
          <rect
             y="213.30083"
             x="1345.0739"
             height="33.46423"
             width="2.9130855"
             id="rect2606"
             style="opacity:1;fill:#8d7142;fill-opacity:1;fill-rule:nonzero;stroke:#502c16;stroke-width:0.5;stroke-linecap:butt;stroke-linejoin:miter;stroke-miterlimit:4;stroke-dasharray:none;stroke-opacity:1" />
          <g
             transform="matrix(0.8465011,0,0,0.8474576,2771.7269,-201.15437)"
             id="g3350">
            <rect
               style="opacity:1;fill:#8d7142;fill-opacity:1;fill-rule:nonzero;stroke:#502c17;stroke-width:1;stroke-linecap:butt;stroke-linejoin:miter;stroke-miterlimit:4;stroke-dasharray:none;stroke-opacity:1"
               id="rect3346"
               width="36.367306"
               height="34.094467"
               x="-1698.5869"
               y="521.5376" />
            <path
               style="fill:#b50128;fill-opacity:1;fill-rule:evenodd;stroke:#502c17;stroke-width:0.69999999;stroke-linecap:butt;stroke-linejoin:miter;stroke-miterlimit:4;stroke-dasharray:none;stroke-opacity:1"
               d="M -1698.586,521.5385 L -1689.7472,513.70981 L -1663.9883,513.83608 L -1662.4731,513.83608 L -1662.2205,521.5385 L -1698.586,521.5385 z"
               id="path3348" />
          </g>
          <g
             transform="matrix(0.8465011,0,0,0.8474576,2771.7269,-201.15437)"
             id="g3301">
            <rect
               style="opacity:1;fill:#8d7142;fill-opacity:1;fill-rule:nonzero;stroke:#502c17;stroke-width:0.69999999;stroke-linecap:butt;stroke-linejoin:miter;stroke-miterlimit:4;stroke-dasharray:none;stroke-opacity:1"
               id="rect3222"
               width="9.8019009"
               height="32.301899"
               x="-1560.9363"
               y="522.99695" />
            <path
               style="fill:#b50128;fill-opacity:1;fill-rule:evenodd;stroke:#502c17;stroke-width:0.52053881;stroke-linecap:butt;stroke-linejoin:miter;stroke-miterlimit:4;stroke-dasharray:none;stroke-opacity:1"
               d="M -1561.1756,522.96477 L -1556.1319,514.05673 L -1550.8942,522.96477 L -1561.1756,522.96477 z"
               id="path3228" />
          </g>
          <g
             transform="matrix(0.8465011,0,0,0.8474576,2771.7269,-201.15437)"
             id="g3305">
            <rect
               style="opacity:1;fill:#8d7142;fill-opacity:1;fill-rule:nonzero;stroke:#502c17;stroke-width:0.69999999;stroke-linecap:butt;stroke-linejoin:miter;stroke-miterlimit:4;stroke-dasharray:none;stroke-opacity:1"
               id="rect3220"
               width="12.894424"
               height="32.180138"
               x="-1587.1254"
               y="523.0578" />
            <path
               style="fill:#b50128;fill-opacity:1;fill-rule:evenodd;stroke:#502c17;stroke-width:0.51682574;stroke-linecap:butt;stroke-linejoin:miter;stroke-miterlimit:4;stroke-dasharray:none;stroke-opacity:1"
               d="M -1587.3665,523.02977 L -1581.0601,512.68944 L -1573.9893,523.02977 L -1587.3665,523.02977 z"
               id="path3226" />
          </g>
          <rect
             y="214.51201"
             x="1416.9957"
             height="41.471687"
             width="1.9049348"
             id="rect3381"
             style="opacity:1;fill:#8d7142;fill-opacity:1;fill-rule:nonzero;stroke:#502c16;stroke-width:0.5;stroke-linecap:butt;stroke-linejoin:miter;stroke-miterlimit:4;stroke-dasharray:none;stroke-opacity:1" />
          <g
             transform="matrix(0.8465011,0,0,0.8474576,2771.7269,-201.15437)"
             id="g3309">
            <rect
               style="opacity:1;fill:#8d7142;fill-opacity:1;fill-rule:nonzero;stroke:#502c17;stroke-width:0.69999999;stroke-linecap:butt;stroke-linejoin:miter;stroke-miterlimit:4;stroke-dasharray:none;stroke-opacity:1"
               id="rect3218"
               width="14.618765"
               height="32.118763"
               x="-1611.2018"
               y="517.47876" />
            <path
               style="fill:#b50128;fill-opacity:1;fill-rule:evenodd;stroke:#502c17;stroke-width:0.51075226;stroke-linecap:butt;stroke-linejoin:miter;stroke-miterlimit:4;stroke-dasharray:none;stroke-opacity:1"
               d="M -1611.4465,517.43077 L -1604.1722,506.72725 L -1596.3383,517.43077 L -1611.4465,517.43077 z"
               id="path3224" />
          </g>
          <g
             transform="matrix(0.8465011,0,0,0.8474576,2771.727,-201.15437)"
             id="g3627">
            <path
               style="opacity:1;fill:#8d7142;fill-opacity:1;fill-rule:nonzero;stroke:#502c17;stroke-width:1;stroke-linecap:butt;stroke-linejoin:miter;stroke-miterlimit:4;stroke-dasharray:none;stroke-opacity:1"
               d="M -1566.1562,214.84375 L -1566.1562,232.1875 L -1568.4688,232.1875 L -1568.4688,232.40625 L -1568.4688,233.03125 L -1568.9688,233.03125 L -1568.9688,257.375 L -1571.75,257.375 L -1571.75,315.75 L -1543.9688,315.75 L -1543.9688,257.375 L -1546.75,257.375 L -1546.75,233.03125 L -1547.25,233.03125 L -1547.25,232.40625 L -1547.25,232.1875 L -1549.5625,232.1875 L -1549.5625,214.84375 L -1549.6875,214.84375 L -1550.2812,214.84375 L -1565.4375,214.84375 L -1566.0312,214.84375 L -1566.1562,214.84375 z"
               transform="translate(-93,237.36218)"
               id="rect3462" />
            <path
               style="opacity:1;fill:#8d7142;fill-opacity:1;fill-rule:nonzero;stroke:#502c17;stroke-width:1;stroke-linecap:butt;stroke-linejoin:miter;stroke-miterlimit:4;stroke-dasharray:none;stroke-opacity:1"
               d="M -1665.504,490.5653 L -1665.504,495.59655 L -1636.3364,495.59655 L -1636.3364,490.5653 L -1638.1248,490.5653 L -1638.1248,493.09655 L -1641.0189,493.09655 L -1641.0189,490.5653 L -1645.1484,490.5653 L -1645.1484,492.8153 L -1648.0425,492.8153 L -1648.0425,490.5653 L -1651.9119,490.5653 L -1651.9119,493.09655 L -1654.7735,493.09655 L -1654.7735,490.5653 L -1658.4153,490.5653 L -1658.4153,493.09655 L -1661.3095,493.09655 L -1661.3095,490.5653 L -1665.504,490.5653 z"
               id="path3535" />
            <path
               style="opacity:1;fill:#8d7142;fill-opacity:1;fill-rule:nonzero;stroke:#502c17;stroke-width:1.03544855;stroke-linecap:butt;stroke-linejoin:miter;stroke-miterlimit:4;stroke-dasharray:none;stroke-opacity:1"
               d="M -1662.7165,465.58302 L -1662.7165,470.57883 L -1639.2654,470.57883 L -1639.2654,465.58302 L -1641.7286,465.58302 L -1641.7286,467.56893 L -1644.1918,467.56893 L -1644.1918,465.58302 L -1646.8574,465.58302 L -1646.8574,467.56893 L -1649.3207,467.56893 L -1649.3207,465.58302 L -1651.9863,465.58302 L -1651.9863,467.56893 L -1654.4158,467.56893 L -1654.4158,465.58302 L -1656.5753,465.58302 L -1656.5753,467.56893 L -1659.0386,467.56893 L -1659.0386,465.58302 L -1662.7165,465.58302 z"
               id="path3537" />
            <path
               style="opacity:1;fill:#8d7142;fill-opacity:1;fill-rule:nonzero;stroke:#502c17;stroke-width:0.96086955;stroke-linecap:butt;stroke-linejoin:miter;stroke-miterlimit:4;stroke-dasharray:none;stroke-opacity:1"
               d="M -1659.7531,449.10824 L -1659.7531,453.95986 L -1641.8315,453.95986 L -1641.8315,449.10824 L -1644.7594,449.10824 L -1644.7594,451.40803 L -1647.1547,451.40803 L -1647.1547,449.10824 L -1649.284,449.10824 L -1649.284,451.40803 L -1651.6795,451.40803 L -1651.6795,449.10824 L -1654.2228,449.10824 L -1654.2228,451.40803 L -1656.6183,451.40803 L -1656.6183,449.10824 L -1659.7531,449.10824 z"
               id="path3539" />
          </g>
          <g
             transform="matrix(0.8465011,0,0,0.8474576,2771.727,-201.15437)"
             id="g3183">
            <rect
               style="fill:#8d7142;fill-opacity:1;fill-rule:nonzero;stroke:#502c17;stroke-width:1.12062275;stroke-linecap:butt;stroke-linejoin:miter;stroke-miterlimit:4;stroke-dasharray:none;stroke-opacity:1"
               id="rect3605"
               width="54.175072"
               height="35.916183"
               x="-1669.7366"
               y="530.18506" />
            <path
               style="fill:#8d7142;fill-opacity:1;fill-rule:nonzero;stroke:#502c17;stroke-width:1;stroke-linecap:butt;stroke-linejoin:miter;stroke-miterlimit:4;stroke-dasharray:none;stroke-opacity:1"
               d="M -1669.813,521.58093 L -1669.813,530.14343 L -1615.5005,530.14343 L -1615.5005,521.58093 L -1619.313,521.58093 L -1619.313,526.58093 L -1622.9693,526.58093 L -1622.9693,521.58093 L -1628.2505,521.58093 L -1628.2505,526.58093 L -1631.9067,526.58093 L -1631.9067,521.58093 L -1636.7505,521.58093 L -1636.7505,526.58093 L -1640.4067,526.58093 L -1640.4067,521.58093 L -1645.3755,521.58093 L -1645.3755,526.58093 L -1649.0317,526.58093 L -1649.0317,521.58093 L -1654.1255,521.58093 L -1654.1255,526.58093 L -1657.7817,526.58093 L -1657.7817,521.58093 L -1662.7505,521.58093 L -1662.7505,526.58093 L -1666.4067,526.58093 L -1666.4067,521.58093 L -1669.813,521.58093 z"
               id="rect3607" />
          </g>
          <path
             id="path3381"
             d="M 1454.5278,244.2929 C 1453.5264,244.2929 1452.7289,245.09133 1452.7289,246.09375 C 1452.7289,246.12046 1452.7278,246.14677 1452.7289,246.1732 L 1452.7289,249.35117 L 1456.353,249.35117 L 1456.353,246.1732 C 1456.3542,246.14716 1456.353,246.12006 1456.353,246.09375 C 1456.353,245.09133 1455.5292,244.2929 1454.5278,244.2929 z"
             style="fill:#502c16;fill-opacity:1;fill-rule:nonzero;stroke:none;stroke-width:3.94799995;stroke-linecap:butt;stroke-linejoin:miter;stroke-miterlimit:4;stroke-dasharray:none;stroke-opacity:1" />
          <rect
             style="opacity:1;fill:#8d7142;fill-opacity:1;fill-rule:nonzero;stroke:#502c16;stroke-width:0.5;stroke-linecap:butt;stroke-linejoin:miter;stroke-miterlimit:4;stroke-dasharray:none;stroke-opacity:1"
             id="rect3379"
             width="1.9477527"
             height="33.559555"
             x="1443.6676"
             y="227.92563" />
          <g
             transform="matrix(0.8465011,0,0,0.8474576,2771.7269,-201.15437)"
             id="g3373">
            <rect
               style="opacity:1;fill:#8d7142;fill-opacity:1;fill-rule:nonzero;stroke:#502c17;stroke-width:0.69910759;stroke-linecap:butt;stroke-linejoin:miter;stroke-miterlimit:4;stroke-dasharray:none;stroke-opacity:1"
               id="rect3362"
               width="14.016759"
               height="20.077673"
               x="-1559.312"
               y="543.13007" />
            <path
               style="fill:#b50128;fill-opacity:1;fill-rule:evenodd;stroke:#502c17;stroke-width:0.69999999;stroke-linecap:butt;stroke-linejoin:miter;stroke-miterlimit:4;stroke-dasharray:none;stroke-opacity:1"
               d="M -1572.0859,529.9467 L -1546.3661,529.9467 L -1540.498,529.9467 L -1545.1175,543.125 L -1571.4617,543.50883 L -1572.0859,529.9467 z"
               id="path3370" />
            <path
               style="opacity:1;fill:#8d7142;fill-opacity:1;fill-rule:nonzero;stroke:#502c17;stroke-width:0.70200002;stroke-linecap:butt;stroke-linejoin:miter;stroke-miterlimit:4;stroke-dasharray:none;stroke-opacity:1"
               d="M -1479.5,292.75 L -1492.2188,305.90625 L -1492.3125,305.90625 L -1492.3125,306 L -1492.3125,306.03125 L -1492.3125,325.84375 L -1466.4375,325.84375 L -1466.4375,305.90625 L -1467.0625,305.90625 L -1479.5,292.75 z"
               transform="translate(-93,237.36218)"
               id="rect3364" />
          </g>
          <g
             transform="matrix(0.8465011,0,0,0.8474576,3618.228,-201.15437)"
             id="g3296">
            <rect
               style="opacity:1;fill:#8d7142;fill-opacity:1;fill-rule:nonzero;stroke:#502c17;stroke-width:1;stroke-linecap:butt;stroke-linejoin:miter;stroke-miterlimit:4;stroke-dasharray:none;stroke-opacity:1"
               id="rect3284"
               width="28.928572"
               height="32.142857"
               x="-2606.2141"
               y="543.43359" />
            <path
               style="fill:#b50128;fill-opacity:1;fill-rule:evenodd;stroke:#502c17;stroke-width:1.00215614px;stroke-linecap:butt;stroke-linejoin:miter;stroke-opacity:1"
               d="M -2606.1668,543.43253 L -2616.4809,531.82752 L -2586.2562,531.64897 L -2577.1081,543.43253 L -2606.1668,543.43253 z"
               id="path3286"
               sodipodi:nodetypes="ccccc" />
            <path
               style="fill:#8d7142;fill-opacity:1;fill-rule:evenodd;stroke:#502c17;stroke-width:1px;stroke-linecap:butt;stroke-linejoin:miter;stroke-opacity:1"
               d="M -2615.9463,532.63003 L -2615.3213,575.39789 L -2606.2141,575.39789 L -2606.2141,543.61218 L -2615.9463,532.63003 z"
               id="path3288"
               sodipodi:nodetypes="ccccc" />
          </g>
          <path
             id="path3383"
             d="M 1420.0724,263.08716 C 1418.7168,263.08716 1417.6371,264.10516 1417.6371,265.38327 C 1417.6371,265.41733 1417.6356,265.45086 1417.6371,265.48456 L 1417.6371,269.53652 L 1422.5435,269.53652 L 1422.5435,265.48456 C 1422.5451,265.45136 1422.5435,265.41682 1422.5435,265.38327 C 1422.5435,264.10516 1421.4282,263.08716 1420.0724,263.08716 z"
             style="fill:#502c16;fill-opacity:1;fill-rule:nonzero;stroke:none;stroke-width:3.94799995;stroke-linecap:butt;stroke-linejoin:miter;stroke-miterlimit:4;stroke-dasharray:none;stroke-opacity:1" />
          <g
             transform="matrix(0.8465011,0,0,0.8474576,2771.7269,-201.15437)"
             id="g3179">
            <rect
               style="fill:#8d7142;fill-opacity:1;fill-rule:nonzero;stroke:#502c17;stroke-width:1;stroke-linecap:butt;stroke-linejoin:miter;stroke-miterlimit:4;stroke-dasharray:none;stroke-opacity:1"
               id="rect3167"
               width="68.398117"
               height="15.122552"
               x="-1656.4219"
               y="562.86725" />
            <path
               style="fill:#8d7142;fill-opacity:1;fill-rule:nonzero;stroke:#502c17;stroke-width:1.11379445;stroke-linecap:butt;stroke-linejoin:miter;stroke-miterlimit:4;stroke-dasharray:none;stroke-opacity:1"
               d="M -1656.3431,554.47786 L -1656.3431,562.92656 L -1588.0589,562.92656 L -1588.0589,554.47786 L -1592.8522,554.47786 L -1592.8522,559.41141 L -1597.449,559.41141 L -1597.449,554.47786 L -1604.0888,554.47786 L -1604.0888,559.41141 L -1608.6855,559.41141 L -1608.6855,554.47786 L -1614.7754,554.47786 L -1614.7754,559.41141 L -1619.3721,559.41141 L -1619.3721,554.47786 L -1625.6191,554.47786 L -1625.6191,559.41141 L -1630.2159,559.41141 L -1630.2159,554.47786 L -1636.62,554.47786 L -1636.62,559.41141 L -1641.2168,559.41141 L -1641.2168,554.47786 L -1647.4638,554.47786 L -1647.4638,559.41141 L -1652.0605,559.41141 L -1652.0605,554.47786 L -1656.3431,554.47786 z"
               id="path3171" />
          </g>
          <g
             transform="matrix(0.8465011,0,0,0.8474576,2771.7269,-201.15437)"
             id="g3400">
            <g
               id="g3392">
              <rect
                 y="571.30902"
                 x="-1588.6957"
                 height="12.106304"
                 width="15.677733"
                 id="rect3380"
                 style="fill:#8d7142;fill-opacity:1;fill-rule:nonzero;stroke:#502c17;stroke-width:0.73655277;stroke-linecap:butt;stroke-linejoin:miter;stroke-miterlimit:4;stroke-dasharray:none;stroke-opacity:1" />
              <path
                 style="fill:#8d7142;fill-opacity:1;fill-rule:nonzero;stroke:#502c17;stroke-width:0.69999999;stroke-linecap:butt;stroke-linejoin:miter;stroke-miterlimit:4;stroke-dasharray:none;stroke-opacity:1"
                 d="M -1588.714,566.37807 L -1588.714,571.3601 L -1572.7546,571.3601 L -1572.7546,566.37807 L -1574.2397,566.37807 L -1574.2397,569.28426 L -1576.3899,569.28426 L -1576.3899,566.37807 L -1579.4266,566.37807 L -1579.4266,569.28426 L -1581.5988,569.28426 L -1581.5988,566.37807 L -1584.5469,566.37807 L -1584.5469,569.28426 L -1586.7191,569.28426 L -1586.7191,566.37807 L -1588.714,566.37807 z"
                 id="path3384" />
            </g>
          </g>
          <path
             id="path3434"
             d="M 1384.8556,266.49517 L 1394.2276,266.34383"
             style="fill:none;fill-rule:evenodd;stroke:#502c16;stroke-width:0.8469792px;stroke-linecap:butt;stroke-linejoin:miter;stroke-opacity:1" />
          <path
             style="fill:none;fill-rule:evenodd;stroke:#502c16;stroke-width:0.8469792;stroke-linecap:butt;stroke-linejoin:miter;stroke-miterlimit:4;stroke-dasharray:none;stroke-opacity:1"
             d="M 1396.5268,267.74968 L 1366.3067,267.81328 L 1366.3067,267.81328"
             id="path3436" />
          <g
             transform="matrix(0.8465011,0,0,0.8474576,2771.727,-201.15437)"
             id="g3210">
            <rect
               y="556.64789"
               x="-1633.714"
               height="22.857143"
               width="22.5"
               id="rect3204"
               style="opacity:1;fill:#8d7142;fill-opacity:1;fill-rule:nonzero;stroke:#502c17;stroke-width:1;stroke-linecap:butt;stroke-linejoin:miter;stroke-miterlimit:4;stroke-dasharray:none;stroke-opacity:1" />
            <path
               style="fill:#8d7142;fill-opacity:1;fill-rule:nonzero;stroke:#502c17;stroke-width:0.91923362;stroke-linecap:butt;stroke-linejoin:miter;stroke-miterlimit:4;stroke-dasharray:none;stroke-opacity:1"
               d="M -1633.7544,547.96228 L -1633.7544,556.58728 L -1611.2544,556.58728 L -1611.2544,547.96228 L -1613.3481,547.96228 L -1613.3481,552.99353 L -1616.3794,552.99353 L -1616.3794,547.96228 L -1620.6606,547.96228 L -1620.6606,552.99353 L -1623.7231,552.99353 L -1623.7231,547.96228 L -1627.8794,547.96228 L -1627.8794,552.99353 L -1630.9418,552.99353 L -1630.9418,547.96228 L -1633.7544,547.96228 z"
               id="path3195" />
          </g>
          <g
             transform="matrix(0.8465011,0,0,0.8474576,2771.7269,-201.15437)"
             id="g3256">
            <rect
               style="opacity:1;fill:#8d7142;fill-opacity:1;fill-rule:nonzero;stroke:#502c17;stroke-width:1.0134263;stroke-linecap:butt;stroke-linejoin:miter;stroke-miterlimit:4;stroke-dasharray:none;stroke-opacity:1"
               id="rect3230"
               width="26.236755"
               height="33.379608"
               x="-1695.9397"
               y="540.13672" />
            <path
               id="path3234"
               d="M -1695.9054,531.53482 L -1695.9054,540.09 L -1669.6445,540.09 L -1669.6445,531.53482 L -1672.0882,531.53482 L -1672.0882,536.52534 L -1675.6262,536.52534 L -1675.6262,531.53482 L -1680.6231,531.53482 L -1680.6231,536.52534 L -1684.1975,536.52534 L -1684.1975,531.53482 L -1689.0485,531.53482 L -1689.0485,536.52534 L -1692.6227,536.52534 L -1692.6227,531.53482 L -1695.9054,531.53482 z"
               style="fill:#8d7142;fill-opacity:1;fill-rule:nonzero;stroke:#502c17;stroke-width:0.98906463;stroke-linecap:butt;stroke-linejoin:miter;stroke-miterlimit:4;stroke-dasharray:none;stroke-opacity:1" />
          </g>
          <path
             style="fill:#502c16;fill-opacity:1;fill-rule:nonzero;stroke:none;stroke-width:3.94799995;stroke-linecap:butt;stroke-linejoin:miter;stroke-miterlimit:4;stroke-dasharray:none;stroke-opacity:1"
             d="M 1322.3651,237.18031 C 1321.155,237.18031 1320.1912,238.12206 1320.1912,239.30442 C 1320.1912,239.33593 1320.1899,239.36695 1320.1912,239.39813 L 1320.1912,243.14656 L 1324.5709,243.14656 L 1324.5709,239.39813 C 1324.5723,239.36741 1324.5709,239.33545 1324.5709,239.30442 C 1324.5709,238.12206 1323.5753,237.18031 1322.3651,237.18031 z"
             id="path3365" />
          <g
             transform="matrix(0.8465011,0,0,0.8474576,2771.7269,-201.15437)"
             id="g3278">
            <rect
               style="fill:#8d7142;fill-opacity:1;fill-rule:nonzero;stroke:#502c17;stroke-width:1;stroke-linecap:butt;stroke-linejoin:miter;stroke-miterlimit:4;stroke-dasharray:none;stroke-opacity:1"
               id="rect3236"
               width="22.389896"
               height="43.923069"
               x="-1718.3544"
               y="528.79346" />
            <path
               id="path3238"
               d="M -1718.3947,520.13394 L -1718.3947,528.7595 L -1695.9234,528.7595 L -1695.9234,520.13394 L -1698.0144,520.13394 L -1698.0144,525.16552 L -1701.0419,525.16552 L -1701.0419,520.13394 L -1705.3177,520.13394 L -1705.3177,525.16552 L -1708.3763,525.16552 L -1708.3763,520.13394 L -1712.5273,520.13394 L -1712.5273,525.16552 L -1715.5857,525.16552 L -1715.5857,520.13394 L -1718.3947,520.13394 z"
               style="fill:#8d7142;fill-opacity:1;fill-rule:nonzero;stroke:#502c17;stroke-width:0.91867822;stroke-linecap:butt;stroke-linejoin:miter;stroke-miterlimit:4;stroke-dasharray:none;stroke-opacity:1" />
          </g>
          <g
             transform="matrix(0.8465011,0,0,0.8474576,2771.7269,-201.15437)"
             id="g3244">
            <rect
               style="opacity:1;fill:#8d7142;fill-opacity:1;fill-rule:nonzero;stroke:#502c17;stroke-width:1;stroke-linecap:butt;stroke-linejoin:miter;stroke-miterlimit:4;stroke-dasharray:none;stroke-opacity:1"
               id="rect3240"
               width="18.133797"
               height="29.562366"
               x="-1736.5308"
               y="538.83099" />
            <path
               id="path3242"
               d="M -1736.6994,533.29529 L -1736.6994,538.7669 L -1718.2287,538.7669 L -1718.2287,533.29529 L -1719.9474,533.29529 L -1719.9474,536.48706 L -1722.436,536.48706 L -1722.436,533.29529 L -1725.9505,533.29529 L -1725.9505,536.48706 L -1728.4646,536.48706 L -1728.4646,533.29529 L -1731.8766,533.29529 L -1731.8766,536.48706 L -1734.3905,536.48706 L -1734.3905,533.29529 L -1736.6994,533.29529 z"
               style="fill:#8d7142;fill-opacity:1;fill-rule:nonzero;stroke:#502c17;stroke-width:0.66336715;stroke-linecap:butt;stroke-linejoin:miter;stroke-miterlimit:4;stroke-dasharray:none;stroke-opacity:1" />
          </g>
          <rect
             y="248.74594"
             x="1285.1313"
             height="32.74435"
             width="16.674358"
             id="rect3272"
             style="fill:#8d7142;fill-opacity:1;fill-rule:nonzero;stroke:#502c17;stroke-width:0.59288543;stroke-linecap:butt;stroke-linejoin:miter;stroke-miterlimit:4;stroke-dasharray:none;stroke-opacity:1" />
          <path
             style="fill:#8d7142;fill-opacity:1;fill-rule:nonzero;stroke:#502c17;stroke-width:0.67734414;stroke-linecap:butt;stroke-linejoin:miter;stroke-miterlimit:4;stroke-dasharray:none;stroke-opacity:1"
             d="M 1285.1734,242.28242 L 1285.1734,248.63371 L 1301.7634,248.63371 L 1301.7634,242.28242 L 1300.2197,242.28242 L 1300.2197,245.98734 L 1297.9846,245.98734 L 1297.9846,242.28242 L 1294.8279,242.28242 L 1294.8279,245.98734 L 1292.5698,245.98734 L 1292.5698,242.28242 L 1289.5052,242.28242 L 1289.5052,245.98734 L 1287.2473,245.98734 L 1287.2473,242.28242 L 1285.1734,242.28242 z"
             id="path3276" />
          <path
             id="path3313"
             d="M 1374.5952,172.8284 L 1374.3042,173.96717 C 1373.9754,174.09741 1373.7486,174.40809 1373.7487,174.78814 C 1373.7487,175.13807 1373.9369,175.43509 1374.2248,175.58263 L 1374.2248,176.03285 C 1373.5451,176.23136 1373.0344,176.91272 1373.0344,177.70128 C 1373.0344,178.46917 1373.5194,179.09986 1374.1719,179.31674 L 1374.1719,181.09111 L 1375.0449,181.09111 L 1375.0449,179.34323 C 1375.7363,179.15312 1376.2617,178.4987 1376.2617,177.70128 C 1376.2617,176.895 1375.7215,176.21423 1375.0184,176.03285 L 1375.0184,175.58263 C 1375.3063,175.43509 1375.4945,175.13807 1375.4945,174.78814 C 1375.4945,174.41712 1375.282,174.10328 1374.9655,173.96717 L 1374.5952,172.8284 z"
             style="fill:#8d7142;fill-opacity:1;fill-rule:nonzero;stroke:#502c17;stroke-width:0.4234896;stroke-linecap:butt;stroke-linejoin:miter;stroke-miterlimit:4;stroke-dasharray:none;stroke-opacity:1" />
          <path
             id="path3432"
             d="M 1376.6929,266.49517 L 1366.2628,266.6465 L 1366.2628,266.6465"
             style="fill:none;fill-rule:evenodd;stroke:#502c16;stroke-width:0.8469792px;stroke-linecap:butt;stroke-linejoin:miter;stroke-opacity:1" />
          <g
             transform="matrix(0.8465011,0,0,0.8474576,2771.7269,-201.15437)"
             id="g3252">
            <rect
               style="fill:#8d7142;fill-opacity:1;fill-rule:nonzero;stroke:#502c17;stroke-width:0.93217856;stroke-linecap:butt;stroke-linejoin:miter;stroke-miterlimit:4;stroke-dasharray:none;stroke-opacity:1"
               id="rect3187"
               width="22.210678"
               height="22.585768"
               x="-1677.3199"
               y="556.59607" />
            <path
               id="path3208"
               d="M -1677.329,547.95964 L -1677.329,556.58992 L -1655.1,556.58992 L -1655.1,547.95964 L -1657.1685,547.95964 L -1657.1685,552.99397 L -1660.1633,552.99397 L -1660.1633,547.95964 L -1664.393,547.95964 L -1664.393,552.99397 L -1667.4186,552.99397 L -1667.4186,547.95964 L -1671.5248,547.95964 L -1671.5248,552.99397 L -1674.5503,552.99397 L -1674.5503,547.95964 L -1677.329,547.95964 z"
               style="fill:#8d7142;fill-opacity:1;fill-rule:nonzero;stroke:#502c17;stroke-width:0.9139607;stroke-linecap:butt;stroke-linejoin:miter;stroke-miterlimit:4;stroke-dasharray:none;stroke-opacity:1" />
          </g>
          <g
             transform="matrix(0.8465011,0,0,0.8474576,2771.7269,-201.15437)"
             id="g3396">
            <rect
               style="opacity:1;fill:#8d7142;fill-opacity:1;fill-rule:nonzero;stroke:#502c17;stroke-width:0.69073385;stroke-linecap:butt;stroke-linejoin:miter;stroke-miterlimit:4;stroke-dasharray:none;stroke-opacity:1"
               id="rect3378"
               width="25.723553"
               height="23.937838"
               x="-1573.3616"
               y="560.21472" />
            <path
               id="path3382"
               d="M -1573.3557,552.94845 L -1573.3557,560.33415 L -1547.6443,560.33415 L -1547.6443,552.94845 L -1550.0367,552.94845 L -1550.0367,557.25678 L -1553.5008,557.25678 L -1553.5008,552.94845 L -1558.3931,552.94845 L -1558.3931,557.25678 L -1561.8927,557.25678 L -1561.8927,552.94845 L -1566.6422,552.94845 L -1566.6422,557.25678 L -1570.1417,557.25678 L -1570.1417,552.94845 L -1573.3557,552.94845 z"
               style="fill:#8d7142;fill-opacity:1;fill-rule:nonzero;stroke:#502c17;stroke-width:0.70265681;stroke-linecap:butt;stroke-linejoin:miter;stroke-miterlimit:4;stroke-dasharray:none;stroke-opacity:1" />
          </g>
          <path
             id="path3375"
             d="M 1434.2047,285.10494 C 1433.2034,285.10494 1432.4059,285.90337 1432.4059,286.90579 C 1432.4059,286.9325 1432.4048,286.95881 1432.4059,286.98524 L 1432.4059,290.16321 L 1436.0299,290.16321 L 1436.0299,286.98524 C 1436.0311,286.9592 1436.0299,286.93211 1436.0299,286.90579 C 1436.0299,285.90337 1435.2061,285.10494 1434.2047,285.10494 z"
             style="fill:#502c16;fill-opacity:1;fill-rule:nonzero;stroke:none;stroke-width:3.94799995;stroke-linecap:butt;stroke-linejoin:miter;stroke-miterlimit:4;stroke-dasharray:none;stroke-opacity:1" />
          <path
             id="path3448"
             d="M 1390.6868,285.46081 C 1364.1879,285.43218 1337.7616,289.75579 1316.2212,302.06568 L 1332.4105,301.13877 L 1332.4105,304.63454 L 1340.2671,304.31674 C 1340.2671,304.31674 1343.8799,306.74562 1346.2984,304.47564 L 1346.4571,297.06039 C 1346.4571,297.06039 1351.0033,291.30978 1354.6311,297.06039 L 1354.6311,305.08475 C 1354.6311,305.08475 1357.7866,307.19582 1362.1703,304.92585 L 1362.329,295.39195 C 1362.329,295.39195 1367.9333,286.9363 1372.6193,297.37818 L 1372.6193,305.24365 C 1372.6193,305.24365 1375.4951,307.35472 1379.5764,305.08475 L 1379.8675,295.39195 C 1379.8675,295.39195 1385.0069,284.36366 1389.3906,296.31886 L 1389.3906,304.47564 C 1389.3906,304.47564 1392.2551,307.51363 1396.6388,305.24365 L 1396.7975,295.25954 C 1396.7975,295.25954 1402.2317,286.32719 1406.1619,296.76907 L 1406.3206,305.98517 C 1406.3206,305.98517 1409.8011,308.11516 1413.2778,305.69386 L 1413.4365,295.39195 C 1413.4365,295.39195 1420.3748,285.25272 1423.7003,298.56992 L 1423.4094,305.69386 C 1423.4094,305.69386 1423.398,307.96005 1430.0491,306.14407 L 1429.8904,297.96081 C 1429.8904,297.96081 1435.1811,288.27935 1440.4717,299.62924 L 1440.4717,305.24365 L 1448.9367,305.53496 L 1457.7191,306.11759 L 1457.7191,293.16738 C 1437.4984,288.90764 1414.075,285.48608 1390.6868,285.46081 z"
             style="fill:#8d7142;fill-opacity:1;fill-rule:evenodd;stroke:#502c17;stroke-width:0.8469792px;stroke-linecap:butt;stroke-linejoin:miter;stroke-opacity:1" />
          <path
             sodipodi:nodetypes="cc"
             id="path3483"
             d="M 1319.5056,301.82177 C 1374.8729,272.71568 1457.8173,295.18729 1457.8173,295.18729"
             style="fill:none;fill-rule:evenodd;stroke:#502c17;stroke-width:0.8469792px;stroke-linecap:butt;stroke-linejoin:miter;stroke-opacity:1" />
          <path
             id="rect3439"
             d="M 1284.2657,277.40996 L 1284.2657,303.125 L 1332.1724,303.125 L 1332.1724,300.84746 L 1341.9336,300.84746 L 1341.9336,295.12712 L 1348.9173,295.12712 L 1348.9173,285.38136 L 1341.9336,285.38136 L 1341.9336,283.89831 L 1332.1724,283.89831 L 1332.1724,277.40996 L 1284.2657,277.40996 z"
             style="fill:#8d7142;fill-opacity:1;fill-rule:nonzero;stroke:#502c17;stroke-width:0.57548279;stroke-linecap:butt;stroke-linejoin:miter;stroke-miterlimit:4;stroke-dasharray:none;stroke-opacity:1" />
          <path
             id="path3453"
             d="M 1354.4724,297.2155 C 1357.9491,294.03754 1362.1816,296.00484 1362.1816,296.00484"
             style="fill:none;fill-rule:evenodd;stroke:#502c17;stroke-width:0.59288543;stroke-linecap:butt;stroke-linejoin:miter;stroke-miterlimit:4;stroke-dasharray:none;stroke-opacity:1" />
          <path
             id="path3461"
             d="M 1423.5529,298.42616 C 1427.332,295.55085 1429.7506,298.27483 1429.7506,298.27483"
             style="fill:none;fill-rule:evenodd;stroke:#502c17;stroke-width:0.59288543;stroke-linecap:butt;stroke-linejoin:miter;stroke-miterlimit:4;stroke-dasharray:none;stroke-opacity:1" />
          <path
             id="path3463"
             d="M 1372.6118,297.2155 C 1375.7861,293.73487 1379.7163,296.00484 1379.7163,296.00484"
             style="fill:none;fill-rule:evenodd;stroke:#502c17;stroke-width:0.59288543;stroke-linecap:butt;stroke-linejoin:miter;stroke-miterlimit:4;stroke-dasharray:none;stroke-opacity:1" />
          <path
             id="path3465"
             d="M 1389.5418,296.00484 C 1392.8673,292.97822 1396.6463,295.55085 1396.6463,295.55085"
             style="fill:none;fill-rule:evenodd;stroke:#502c17;stroke-width:0.59288543;stroke-linecap:butt;stroke-linejoin:miter;stroke-miterlimit:4;stroke-dasharray:none;stroke-opacity:1" />
          <path
             id="path3467"
             d="M 1406.0183,296.45884 C 1409.6462,293.8862 1413.274,295.85351 1413.274,295.85351"
             style="fill:none;fill-rule:evenodd;stroke:#502c17;stroke-width:0.59288543;stroke-linecap:butt;stroke-linejoin:miter;stroke-miterlimit:4;stroke-dasharray:none;stroke-opacity:1" />
          <path
             id="path3469"
             d="M 1360.67,295.39952 C 1367.7746,284.04964 1373.821,296.30751 1373.821,296.30751"
             style="fill:none;fill-rule:evenodd;stroke:#502c17;stroke-width:0.59288543;stroke-linecap:butt;stroke-linejoin:miter;stroke-miterlimit:4;stroke-dasharray:none;stroke-opacity:1" />
          <path
             id="path3471"
             d="M 1378.3628,295.69523 C 1386.0629,281.88839 1390.1395,295.37783 1390.1395,295.37783"
             style="fill:none;fill-rule:evenodd;stroke:#502c17;stroke-width:0.60678846;stroke-linecap:butt;stroke-linejoin:miter;stroke-miterlimit:4;stroke-dasharray:none;stroke-opacity:1" />
          <path
             id="path3473"
             d="M 1395.4371,295.09686 C 1402.844,282.99032 1407.2276,295.85351 1407.2276,295.85351"
             style="fill:none;fill-rule:evenodd;stroke:#502c17;stroke-width:0.59288543;stroke-linecap:butt;stroke-linejoin:miter;stroke-miterlimit:4;stroke-dasharray:none;stroke-opacity:1" />
          <path
             id="path3475"
             d="M 1411.9196,295.61885 C 1420.6787,282.83967 1424.7561,297.51207 1424.7561,297.51207"
             style="fill:none;fill-rule:evenodd;stroke:#502c17;stroke-width:0.60507441;stroke-linecap:butt;stroke-linejoin:miter;stroke-miterlimit:4;stroke-dasharray:none;stroke-opacity:1" />
          <path
             id="path3477"
             d="M 1440.1807,299.48548 C 1445.3201,295.55085 1449.2503,299.48548 1449.2503,299.48548"
             style="fill:none;fill-rule:evenodd;stroke:#502c17;stroke-width:0.59288543;stroke-linecap:butt;stroke-linejoin:miter;stroke-miterlimit:4;stroke-dasharray:none;stroke-opacity:1" />
          <path
             id="path3479"
             d="M 1428.5297,297.46045 C 1437.2097,286.0325 1441.2504,298.58913 1441.2504,298.58913"
             style="fill:none;fill-rule:evenodd;stroke:#502c17;stroke-width:0.56960696;stroke-linecap:butt;stroke-linejoin:miter;stroke-miterlimit:4;stroke-dasharray:none;stroke-opacity:1" />
          <path
             transform="matrix(1.0581264,0,0,1.0756193,-167.56673,-67.732569)"
             d="M 1522.5,300.17856 A 2.3214285,2.3214285 0 1 1 1517.8572,300.17856 A 2.3214285,2.3214285 0 1 1 1522.5,300.17856 z"
             sodipodi:ry="2.3214285"
             sodipodi:rx="2.3214285"
             sodipodi:cy="300.17856"
             sodipodi:cx="1520.1786"
             id="path2464"
             style="fill:#502c16;fill-opacity:1;fill-rule:nonzero;stroke:none;stroke-width:3.94799995;stroke-linecap:butt;stroke-linejoin:miter;stroke-miterlimit:4;stroke-dasharray:none;stroke-opacity:1"
             sodipodi:type="arc" />
          <path
             id="rect3237"
             d="M 1446.1057,283.89831 C 1445.1043,283.89831 1444.3068,284.69673 1444.3068,285.69916 C 1444.3068,285.72587 1444.3057,285.75217 1444.3068,285.77861 L 1444.3068,288.95657 L 1447.9309,288.95657 L 1447.9309,285.77861 C 1447.9321,285.75256 1447.9309,285.72547 1447.9309,285.69916 C 1447.9309,284.69673 1447.1071,283.89831 1446.1057,283.89831 z"
             style="fill:#502c16;fill-opacity:1;fill-rule:nonzero;stroke:none;stroke-width:3.94799995;stroke-linecap:butt;stroke-linejoin:miter;stroke-miterlimit:4;stroke-dasharray:none;stroke-opacity:1" />
          <path
             style="fill:#502c16;fill-opacity:1;fill-rule:nonzero;stroke:none;stroke-width:3.94799995;stroke-linecap:butt;stroke-linejoin:miter;stroke-miterlimit:4;stroke-dasharray:none;stroke-opacity:1"
             d="M 1446.1057,277.11865 C 1445.1043,277.11865 1444.3068,277.91707 1444.3068,278.9195 C 1444.3068,278.94621 1444.3057,278.97251 1444.3068,278.99895 L 1444.3068,282.17691 L 1447.9309,282.17691 L 1447.9309,278.99895 C 1447.9321,278.9729 1447.9309,278.94581 1447.9309,278.9195 C 1447.9309,277.91707 1447.1071,277.11865 1446.1057,277.11865 z"
             id="path3243" />
          <path
             id="path3245"
             d="M 1453.8148,277.11865 C 1452.8135,277.11865 1452.016,277.91707 1452.016,278.9195 C 1452.016,278.94621 1452.0149,278.97251 1452.016,278.99895 L 1452.016,282.17691 L 1455.6401,282.17691 L 1455.6401,278.99895 C 1455.6412,278.9729 1455.6401,278.94581 1455.6401,278.9195 C 1455.6401,277.91707 1454.8162,277.11865 1453.8148,277.11865 z"
             style="fill:#502c16;fill-opacity:1;fill-rule:nonzero;stroke:none;stroke-width:3.94799995;stroke-linecap:butt;stroke-linejoin:miter;stroke-miterlimit:4;stroke-dasharray:none;stroke-opacity:1" />
          <path
             id="path3247"
             d="M 1414.3626,278.79523 C 1413.3613,278.79523 1412.5638,279.59366 1412.5638,280.59608 C 1412.5638,280.62279 1412.5627,280.6491 1412.5638,280.67553 L 1412.5638,283.8535 L 1416.1879,283.8535 L 1416.1879,280.67553 C 1416.189,280.64949 1416.1879,280.62239 1416.1879,280.59608 C 1416.1879,279.59366 1415.364,278.79523 1414.3626,278.79523 z"
             style="fill:#502c16;fill-opacity:1;fill-rule:nonzero;stroke:none;stroke-width:3.94799995;stroke-linecap:butt;stroke-linejoin:miter;stroke-miterlimit:4;stroke-dasharray:none;stroke-opacity:1" />
          <path
             style="fill:#502c16;fill-opacity:1;fill-rule:nonzero;stroke:none;stroke-width:3.94799995;stroke-linecap:butt;stroke-linejoin:miter;stroke-miterlimit:4;stroke-dasharray:none;stroke-opacity:1"
             d="M 1422.4001,278.79523 C 1421.3987,278.79523 1420.6013,279.59366 1420.6013,280.59608 C 1420.6013,280.62279 1420.6002,280.6491 1420.6013,280.67553 L 1420.6013,283.8535 L 1424.2253,283.8535 L 1424.2253,280.67553 C 1424.2265,280.64949 1424.2253,280.62239 1424.2253,280.59608 C 1424.2253,279.59366 1423.4015,278.79523 1422.4001,278.79523 z"
             id="path3249" />
          <path
             id="path3251"
             d="M 1394.3353,274.35984 C 1393.334,274.35984 1392.5365,275.15827 1392.5365,276.16069 C 1392.5365,276.1874 1392.5354,276.21371 1392.5365,276.24014 L 1392.5365,279.41811 L 1396.1606,279.41811 L 1396.1606,276.24014 C 1396.1618,276.2141 1396.1606,276.187 1396.1606,276.16069 C 1396.1606,275.15827 1395.3368,274.35984 1394.3353,274.35984 z"
             style="fill:#502c16;fill-opacity:1;fill-rule:nonzero;stroke:none;stroke-width:3.94799995;stroke-linecap:butt;stroke-linejoin:miter;stroke-miterlimit:4;stroke-dasharray:none;stroke-opacity:1" />
          <path
             style="fill:#502c16;fill-opacity:1;fill-rule:nonzero;stroke:none;stroke-width:3.94799995;stroke-linecap:butt;stroke-linejoin:miter;stroke-miterlimit:4;stroke-dasharray:none;stroke-opacity:1"
             d="M 1401.7487,274.35984 C 1400.7473,274.35984 1399.9498,275.15827 1399.9498,276.16069 C 1399.9498,276.1874 1399.9487,276.21371 1399.9498,276.24014 L 1399.9498,279.41811 L 1403.5739,279.41811 L 1403.5739,276.24014 C 1403.5751,276.2141 1403.5739,276.187 1403.5739,276.16069 C 1403.5739,275.15827 1402.7501,274.35984 1401.7487,274.35984 z"
             id="path3253" />
          <path
             id="path3255"
             d="M 1305.0853,259.05775 C 1304.084,259.05775 1303.2865,259.85617 1303.2865,260.8586 C 1303.2865,260.88531 1303.2854,260.91162 1303.2865,260.93805 L 1303.2865,264.11601 L 1306.9106,264.11601 L 1306.9106,260.93805 C 1306.9118,260.91201 1306.9106,260.88491 1306.9106,260.8586 C 1306.9106,259.85617 1306.0868,259.05775 1305.0853,259.05775 z"
             style="fill:#502c16;fill-opacity:1;fill-rule:nonzero;stroke:none;stroke-width:3.94799995;stroke-linecap:butt;stroke-linejoin:miter;stroke-miterlimit:4;stroke-dasharray:none;stroke-opacity:1" />
          <path
             style="fill:#502c16;fill-opacity:1;fill-rule:nonzero;stroke:none;stroke-width:3.94799995;stroke-linecap:butt;stroke-linejoin:miter;stroke-miterlimit:4;stroke-dasharray:none;stroke-opacity:1"
             d="M 1312.9262,259.05775 C 1311.9249,259.05775 1311.1274,259.85617 1311.1274,260.8586 C 1311.1274,260.88531 1311.1263,260.91162 1311.1274,260.93805 L 1311.1274,264.11601 L 1314.7515,264.11601 L 1314.7515,260.93805 C 1314.7526,260.91201 1314.7515,260.88491 1314.7515,260.8586 C 1314.7515,259.85617 1313.9276,259.05775 1312.9262,259.05775 z"
             id="path3257" />
          <path
             style="fill:#502c16;fill-opacity:1;fill-rule:nonzero;stroke:none;stroke-width:3.94799995;stroke-linecap:butt;stroke-linejoin:miter;stroke-miterlimit:4;stroke-dasharray:none;stroke-opacity:1"
             d="M 1305.0853,266.05143 C 1304.084,266.05143 1303.2865,266.84985 1303.2865,267.85228 C 1303.2865,267.87899 1303.2854,267.90529 1303.2865,267.93173 L 1303.2865,271.10969 L 1306.9106,271.10969 L 1306.9106,267.93173 C 1306.9118,267.90568 1306.9106,267.87859 1306.9106,267.85228 C 1306.9106,266.84985 1306.0868,266.05143 1305.0853,266.05143 z"
             id="path3259" />
          <path
             id="path3261"
             d="M 1312.9262,266.05143 C 1311.9249,266.05143 1311.1274,266.84985 1311.1274,267.85228 C 1311.1274,267.87899 1311.1263,267.90529 1311.1274,267.93173 L 1311.1274,271.10969 L 1314.7515,271.10969 L 1314.7515,267.93173 C 1314.7526,267.90568 1314.7515,267.87859 1314.7515,267.85228 C 1314.7515,266.84985 1313.9276,266.05143 1312.9262,266.05143 z"
             style="fill:#502c16;fill-opacity:1;fill-rule:nonzero;stroke:none;stroke-width:3.94799995;stroke-linecap:butt;stroke-linejoin:miter;stroke-miterlimit:4;stroke-dasharray:none;stroke-opacity:1" />
          <path
             id="path3263"
             d="M 1342.4357,244.18368 C 1340.9325,244.18368 1339.7353,244.84698 1339.7353,245.67975 C 1339.7353,245.70195 1339.7336,245.7238 1339.7353,245.74575 L 1339.7353,248.38588 L 1345.1758,248.38588 L 1345.1758,245.74575 C 1345.1776,245.72412 1345.1758,245.70162 1345.1758,245.67975 C 1345.1758,244.84698 1343.9391,244.18368 1342.4357,244.18368 z"
             style="fill:#502c16;fill-opacity:1;fill-rule:nonzero;stroke:none;stroke-width:3.94799995;stroke-linecap:butt;stroke-linejoin:miter;stroke-miterlimit:4;stroke-dasharray:none;stroke-opacity:1" />
          <path
             style="fill:#502c16;fill-opacity:1;fill-rule:nonzero;stroke:none;stroke-width:3.94799995;stroke-linecap:butt;stroke-linejoin:miter;stroke-miterlimit:4;stroke-dasharray:none;stroke-opacity:1"
             d="M 1351.8627,244.18368 C 1350.3594,244.18368 1349.1622,244.84698 1349.1622,245.67975 C 1349.1622,245.70195 1349.1605,245.7238 1349.1622,245.74576 L 1349.1622,248.38588 L 1354.6028,248.38588 L 1354.6028,245.74576 C 1354.6046,245.72412 1354.6028,245.70162 1354.6028,245.67975 C 1354.6028,244.84698 1353.366,244.18368 1351.8627,244.18368 z"
             id="path3265" />
          <path
             id="path3267"
             d="M 1296.1065,251.99524 C 1295.1052,251.99524 1294.3077,252.79367 1294.3077,253.79609 C 1294.3077,253.8228 1294.3066,253.84911 1294.3077,253.87554 L 1294.3077,257.05351 L 1297.9317,257.05351 L 1297.9317,253.87554 C 1297.9329,253.8495 1297.9317,253.8224 1297.9317,253.79609 C 1297.9317,252.79367 1297.1079,251.99524 1296.1065,251.99524 z"
             style="fill:#502c16;fill-opacity:1;fill-rule:nonzero;stroke:none;stroke-width:3.94799995;stroke-linecap:butt;stroke-linejoin:miter;stroke-miterlimit:4;stroke-dasharray:none;stroke-opacity:1" />
          <path
             style="fill:#502c16;fill-opacity:1;fill-rule:nonzero;stroke:none;stroke-width:3.94799995;stroke-linecap:butt;stroke-linejoin:miter;stroke-miterlimit:4;stroke-dasharray:none;stroke-opacity:1"
             d="M 1296.1065,260.46982 C 1295.1052,260.46982 1294.3077,261.26824 1294.3077,262.27067 C 1294.3077,262.29738 1294.3066,262.32368 1294.3077,262.35012 L 1294.3077,265.52808 L 1297.9317,265.52808 L 1297.9317,262.35012 C 1297.9329,262.32407 1297.9317,262.29698 1297.9317,262.27067 C 1297.9317,261.26824 1297.1079,260.46982 1296.1065,260.46982 z"
             id="path3269" />
          <path
             id="path3271"
             d="M 1322.0806,250.60415 C 1321.0792,250.60415 1320.2817,251.40257 1320.2817,252.405 C 1320.2817,252.43171 1320.2806,252.45801 1320.2817,252.48445 L 1320.2817,255.66241 L 1323.9058,255.66241 L 1323.9058,252.48445 C 1323.907,252.4584 1323.9058,252.43131 1323.9058,252.405 C 1323.9058,251.40257 1323.082,250.60415 1322.0806,250.60415 z"
             style="fill:#502c16;fill-opacity:1;fill-rule:nonzero;stroke:none;stroke-width:3.94799995;stroke-linecap:butt;stroke-linejoin:miter;stroke-miterlimit:4;stroke-dasharray:none;stroke-opacity:1" />
          <path
             style="fill:#502c16;fill-opacity:1;fill-rule:nonzero;stroke:none;stroke-width:3.94799995;stroke-linecap:butt;stroke-linejoin:miter;stroke-miterlimit:4;stroke-dasharray:none;stroke-opacity:1"
             d="M 1330.5456,250.60415 C 1329.5442,250.60415 1328.7467,251.40257 1328.7467,252.405 C 1328.7467,252.43171 1328.7456,252.45801 1328.7467,252.48445 L 1328.7467,255.66241 L 1332.3708,255.66241 L 1332.3708,252.48445 C 1332.372,252.4584 1332.3708,252.43131 1332.3708,252.405 C 1332.3708,251.40257 1331.547,250.60415 1330.5456,250.60415 z"
             id="path3273" />
          <path
             style="fill:#502c16;fill-opacity:1;fill-rule:nonzero;stroke:none;stroke-width:3.94799995;stroke-linecap:butt;stroke-linejoin:miter;stroke-miterlimit:4;stroke-dasharray:none;stroke-opacity:1"
             d="M 1322.0806,259.07873 C 1321.0792,259.07873 1320.2817,259.87715 1320.2817,260.87957 C 1320.2817,260.90628 1320.2806,260.93259 1320.2817,260.95902 L 1320.2817,264.13699 L 1323.9058,264.13699 L 1323.9058,260.95902 C 1323.907,260.93298 1323.9058,260.90589 1323.9058,260.87957 C 1323.9058,259.87715 1323.082,259.07873 1322.0806,259.07873 z"
             id="path3275" />
          <path
             id="path3277"
             d="M 1330.5456,259.07873 C 1329.5442,259.07873 1328.7467,259.87715 1328.7467,260.87957 C 1328.7467,260.90628 1328.7456,260.93259 1328.7467,260.95902 L 1328.7467,264.13699 L 1332.3708,264.13699 L 1332.3708,260.95902 C 1332.372,260.93298 1332.3708,260.90589 1332.3708,260.87957 C 1332.3708,259.87715 1331.547,259.07873 1330.5456,259.07873 z"
             style="fill:#502c16;fill-opacity:1;fill-rule:nonzero;stroke:none;stroke-width:3.94799995;stroke-linecap:butt;stroke-linejoin:miter;stroke-miterlimit:4;stroke-dasharray:none;stroke-opacity:1" />
          <path
             id="path3407"
             d="M 1332.4896,262.44704 C 1331.4563,262.44704 1330.6113,263.29282 1330.6114,264.32734 C 1330.6114,264.55591 1330.6423,264.76034 1330.7172,264.96293 L 1330.7172,265.86335 C 1326.7937,266.28394 1323.2056,267.82195 1320.3212,270.18009 L 1319.6334,269.46505 C 1319.5464,269.26736 1319.4219,269.09954 1319.2631,268.93539 C 1318.544,268.19247 1317.3597,268.16257 1316.6177,268.88242 C 1315.8756,269.60232 1315.8721,270.7878 1316.5912,271.53073 C 1316.7501,271.69488 1316.8992,271.8082 1317.0939,271.90149 L 1317.8346,272.6695 C 1315.2867,275.6564 1313.6286,279.38409 1313.2846,283.50106 L 1312.2,283.50106 C 1311.9976,283.42607 1311.7934,283.39513 1311.5651,283.39513 C 1310.5318,283.39514 1309.6869,284.24102 1309.687,285.27543 C 1309.687,286.30991 1310.5318,287.12924 1311.5651,287.12924 C 1311.7934,287.12924 1311.9977,287.09831 1312.2,287.02331 L 1313.3111,287.02331 C 1313.7142,291.09655 1315.4036,294.78589 1317.9668,297.72246 L 1317.0939,298.62289 C 1316.8992,298.71618 1316.7237,298.8295 1316.5648,298.99365 C 1315.8456,299.73651 1315.8757,300.94861 1316.6177,301.66844 C 1317.3599,302.38846 1318.5439,302.33191 1319.2631,301.58899 C 1319.4219,301.42484 1319.5464,301.25701 1319.6334,301.05933 L 1320.5063,300.1589 C 1323.3601,302.43366 1326.8723,303.93227 1330.7172,304.34322 L 1330.7172,305.56144 C 1330.6423,305.76404 1330.6114,305.96846 1330.6114,306.19704 C 1330.6114,307.23155 1331.4564,308.07734 1332.4896,308.07733 C 1333.5229,308.07733 1334.3414,307.23155 1334.3414,306.19704 C 1334.3414,305.96846 1334.3105,305.76403 1334.2355,305.56144 L 1334.2355,304.42267 C 1338.1901,304.15241 1341.8227,302.74047 1344.7903,300.50318 L 1345.3194,301.05933 C 1345.4064,301.25701 1345.5308,301.42484 1345.6897,301.58899 C 1346.4088,302.33191 1347.5928,302.38846 1348.335,301.66844 C 1349.077,300.94861 1349.0806,299.73651 1348.3615,298.99365 C 1348.2026,298.8295 1348.0535,298.71618 1347.8589,298.62289 L 1347.4092,298.14619 C 1350.1762,295.14853 1351.987,291.28591 1352.4088,287.02331 L 1352.7528,287.02331 C 1352.9551,287.09831 1353.1592,287.12924 1353.3876,287.12924 C 1354.421,287.12924 1355.2658,286.31009 1355.2658,285.27543 C 1355.2658,284.24101 1354.421,283.39505 1353.3876,283.39513 C 1353.1592,283.39514 1352.9551,283.42606 1352.7528,283.50106 L 1352.4353,283.50106 C 1352.0744,279.18086 1350.2804,275.27304 1347.515,272.21928 L 1347.8325,271.90149 C 1348.0271,271.8082 1348.2026,271.69488 1348.3615,271.53073 C 1349.0806,270.7878 1349.0772,269.60232 1348.335,268.88242 C 1347.5931,268.16257 1346.4088,268.19247 1345.6897,268.93539 C 1345.5308,269.09954 1345.4064,269.26736 1345.3194,269.46505 L 1344.949,269.83581 C 1341.9537,267.5264 1338.2585,266.05966 1334.2355,265.7839 L 1334.2355,264.96293 C 1334.3105,264.76034 1334.3414,264.5559 1334.3414,264.32734 C 1334.3414,263.29282 1333.5231,262.44703 1332.4896,262.44704 z M 1334.2355,270.39195 C 1337.0289,270.6416 1339.6052,271.63348 1341.7482,273.17267 L 1334.2355,280.90572 L 1334.2355,270.39195 z M 1330.7172,270.4714 L 1330.7172,280.93221 L 1323.522,273.49047 C 1325.5606,271.9152 1328.0289,270.84811 1330.7172,270.4714 z M 1344.3407,275.52967 C 1346.2436,277.72597 1347.4973,280.47959 1347.8325,283.50106 L 1336.6163,283.50106 L 1344.3407,275.52967 z M 1321.009,275.95339 L 1328.31,283.50106 L 1317.861,283.50106 C 1318.1756,280.67522 1319.3034,278.07332 1321.009,275.95339 z M 1317.8875,287.02331 L 1328.3364,287.02331 L 1321.1412,294.43856 C 1319.4219,292.36096 1318.254,289.80778 1317.8875,287.02331 z M 1336.6427,287.02331 L 1347.806,287.02331 C 1347.4152,290.00275 1346.1261,292.71005 1344.2083,294.86229 L 1336.6427,287.02331 z M 1330.7172,289.59217 L 1330.7172,299.76166 C 1328.0945,299.39415 1325.6895,298.36127 1323.6807,296.84852 L 1330.7172,289.59217 z M 1334.2355,289.61865 L 1341.5895,297.1928 C 1339.4804,298.66485 1336.9568,299.59791 1334.2355,299.84111 L 1334.2355,289.61865 z"
             style="fill:#8d7142;fill-opacity:1;fill-rule:nonzero;stroke:#502c17;stroke-width:0.6775834;stroke-linecap:butt;stroke-linejoin:miter;stroke-miterlimit:4;stroke-dasharray:none;stroke-opacity:1" />
          <path
             transform="matrix(0.8465011,0,0,0.8474576,1846.5009,0.4280473)"
             d="M -604.07124,336.07291 A 3.1567266,3.4092648 0 1 1 -610.38469,336.07291 A 3.1567266,3.4092648 0 1 1 -604.07124,336.07291 z"
             sodipodi:ry="3.4092648"
             sodipodi:rx="3.1567266"
             sodipodi:cy="336.07291"
             sodipodi:cx="-607.22797"
             id="path3427"
             style="fill:#8d7142;fill-opacity:1;fill-rule:nonzero;stroke:#502c17;stroke-width:0.5;stroke-linecap:butt;stroke-linejoin:miter;stroke-miterlimit:4;stroke-dasharray:none;stroke-opacity:1"
             sodipodi:type="arc" />
          <path
             id="path3357"
             d="M 1357.9358,272.89461 C 1356.9345,272.89461 1356.137,273.69303 1356.137,274.69545 C 1356.137,274.72217 1356.1359,274.74847 1356.137,274.7749 L 1356.137,277.95287 L 1359.761,277.95287 L 1359.761,274.7749 C 1359.7622,274.74886 1359.761,274.72177 1359.761,274.69545 C 1359.761,273.69303 1358.9372,272.89461 1357.9358,272.89461 z"
             style="fill:#502c16;fill-opacity:1;fill-rule:nonzero;stroke:none;stroke-width:3.94799995;stroke-linecap:butt;stroke-linejoin:miter;stroke-miterlimit:4;stroke-dasharray:none;stroke-opacity:1" />
          <path
             style="fill:#502c16;fill-opacity:1;fill-rule:nonzero;stroke:none;stroke-width:3.94799995;stroke-linecap:butt;stroke-linejoin:miter;stroke-miterlimit:4;stroke-dasharray:none;stroke-opacity:1"
             d="M 1365.1613,272.89461 C 1364.16,272.89461 1363.3625,273.69303 1363.3625,274.69545 C 1363.3625,274.72217 1363.3614,274.74847 1363.3625,274.7749 L 1363.3625,277.95287 L 1366.9865,277.95287 L 1366.9865,274.7749 C 1366.9877,274.74886 1366.9865,274.72177 1366.9865,274.69545 C 1366.9865,273.69303 1366.1627,272.89461 1365.1613,272.89461 z"
             id="path3359" />
          <path
             id="path3361"
             d="M 1346.8195,258.66942 C 1345.3588,258.66942 1344.1956,259.89781 1344.1956,261.44006 C 1344.1956,261.48116 1344.194,261.52162 1344.1956,261.56229 L 1344.1956,266.45166 L 1349.4819,266.45166 L 1349.4819,261.56229 C 1349.4836,261.52223 1349.4819,261.48054 1349.4819,261.44006 C 1349.4819,259.89781 1348.2802,258.66942 1346.8195,258.66942 z"
             style="fill:#502c16;fill-opacity:1;fill-rule:nonzero;stroke:none;stroke-width:3.94799995;stroke-linecap:butt;stroke-linejoin:miter;stroke-miterlimit:4;stroke-dasharray:none;stroke-opacity:1" />
          <path
             id="path3363"
             d="M 1312.2071,237.18031 C 1310.997,237.18031 1310.0332,238.12206 1310.0332,239.30442 C 1310.0332,239.33593 1310.0319,239.36695 1310.0332,239.39813 L 1310.0332,243.14656 L 1314.4129,243.14656 L 1314.4129,239.39813 C 1314.4143,239.36741 1314.4129,239.33545 1314.4129,239.30442 C 1314.4129,238.12206 1313.4173,237.18031 1312.2071,237.18031 z"
             style="fill:#502c16;fill-opacity:1;fill-rule:nonzero;stroke:none;stroke-width:3.94799995;stroke-linecap:butt;stroke-linejoin:miter;stroke-miterlimit:4;stroke-dasharray:none;stroke-opacity:1" />
          <path
             id="path3367"
             d="M 1414.537,279.28221 C 1413.5357,279.28221 1412.7382,280.08063 1412.7382,281.08306 C 1412.7382,281.10977 1412.7371,281.13607 1412.7382,281.1625 L 1412.7382,284.34047 L 1416.3622,284.34047 L 1416.3622,281.1625 C 1416.3634,281.13646 1416.3622,281.10937 1416.3622,281.08306 C 1416.3622,280.08063 1415.5384,279.28221 1414.537,279.28221 z"
             style="fill:#502c16;fill-opacity:1;fill-rule:nonzero;stroke:none;stroke-width:3.94799995;stroke-linecap:butt;stroke-linejoin:miter;stroke-miterlimit:4;stroke-dasharray:none;stroke-opacity:1" />
          <path
             style="fill:#502c16;fill-opacity:1;fill-rule:nonzero;stroke:none;stroke-width:3.94799995;stroke-linecap:butt;stroke-linejoin:miter;stroke-miterlimit:4;stroke-dasharray:none;stroke-opacity:1"
             d="M 1422.5745,279.28221 C 1421.5731,279.28221 1420.7756,280.08063 1420.7756,281.08306 C 1420.7756,281.10977 1420.7745,281.13607 1420.7756,281.1625 L 1420.7756,284.34047 L 1424.3997,284.34047 L 1424.3997,281.1625 C 1424.4009,281.13646 1424.3997,281.10937 1424.3997,281.08306 C 1424.3997,280.08063 1423.5759,279.28221 1422.5745,279.28221 z"
             id="path3369" />
          <path
             id="path3371"
             d="M 1383.0054,279.49622 C 1382.0041,279.49622 1381.2066,280.29464 1381.2066,281.29706 C 1381.2066,281.32378 1381.2055,281.35008 1381.2066,281.37651 L 1381.2066,284.55448 L 1384.8307,284.55448 L 1384.8307,281.37651 C 1384.8318,281.35047 1384.8307,281.32338 1384.8307,281.29706 C 1384.8307,280.29464 1384.0068,279.49622 1383.0054,279.49622 z"
             style="fill:#502c16;fill-opacity:1;fill-rule:nonzero;stroke:none;stroke-width:3.94799995;stroke-linecap:butt;stroke-linejoin:miter;stroke-miterlimit:4;stroke-dasharray:none;stroke-opacity:1" />
          <path
             style="fill:#502c16;fill-opacity:1;fill-rule:nonzero;stroke:none;stroke-width:3.94799995;stroke-linecap:butt;stroke-linejoin:miter;stroke-miterlimit:4;stroke-dasharray:none;stroke-opacity:1"
             d="M 1375.5024,279.49622 C 1374.5011,279.49622 1373.7036,280.29464 1373.7036,281.29706 C 1373.7036,281.32378 1373.7025,281.35008 1373.7036,281.37651 L 1373.7036,284.55448 L 1377.3276,284.55448 L 1377.3276,281.37651 C 1377.3288,281.35047 1377.3276,281.32338 1377.3276,281.29706 C 1377.3276,280.29464 1376.5038,279.49622 1375.5024,279.49622 z"
             id="path3373" />
          <path
             id="path3377"
             d="M 1414.0144,239.75296 C 1412.846,239.75296 1411.9156,240.81415 1411.9156,242.14646 C 1411.9156,242.18196 1411.9143,242.21693 1411.9156,242.25206 L 1411.9156,246.47588 L 1416.144,246.47588 L 1416.144,242.25206 C 1416.1454,242.21745 1416.144,242.18144 1416.144,242.14646 C 1416.144,240.81415 1415.1829,239.75296 1414.0144,239.75296 z"
             style="fill:#502c16;fill-opacity:1;fill-rule:nonzero;stroke:none;stroke-width:3.94799995;stroke-linecap:butt;stroke-linejoin:miter;stroke-miterlimit:4;stroke-dasharray:none;stroke-opacity:1" />
          <path
             id="path3379"
             d="M 1433.8154,243.35465 C 1432.5635,243.35465 1431.5666,244.39195 1431.5666,245.69427 C 1431.5666,245.72897 1431.5651,245.76315 1431.5666,245.79749 L 1431.5666,249.92623 L 1436.0972,249.92623 L 1436.0972,245.79749 C 1436.0987,245.76366 1436.0972,245.72845 1436.0972,245.69427 C 1436.0972,244.39195 1435.0674,243.35465 1433.8154,243.35465 z"
             style="fill:#502c16;fill-opacity:1;fill-rule:nonzero;stroke:none;stroke-width:3.94799995;stroke-linecap:butt;stroke-linejoin:miter;stroke-miterlimit:4;stroke-dasharray:none;stroke-opacity:1" />
          <path
             style="fill:#502c16;fill-opacity:1;fill-rule:nonzero;stroke:none;stroke-width:3.94799995;stroke-linecap:butt;stroke-linejoin:miter;stroke-miterlimit:4;stroke-dasharray:none;stroke-opacity:1"
             d="M 1429.3926,263.08716 C 1428.0369,263.08716 1426.9573,264.10516 1426.9573,265.38327 C 1426.9573,265.41733 1426.9558,265.45086 1426.9573,265.48456 L 1426.9573,269.53652 L 1431.8636,269.53652 L 1431.8636,265.48456 C 1431.8652,265.45136 1431.8636,265.41682 1431.8636,265.38327 C 1431.8636,264.10516 1430.7484,263.08716 1429.3926,263.08716 z"
             id="path3385" />
          <g
             transform="matrix(0.717169,0,0,0.7319142,-311.0772,-142.49638)"
             id="g3397">
            <rect
               style="opacity:1;fill:#502c16;fill-opacity:1;fill-rule:nonzero;stroke:none;stroke-width:2.74293613;stroke-linecap:butt;stroke-linejoin:miter;stroke-miterlimit:4;stroke-dasharray:none;stroke-opacity:1"
               id="rect3387"
               width="3.9198487"
               height="6.3189607"
               x="2341.1931"
               y="502.50067" />
            <path
               style="opacity:1;fill:none;fill-opacity:1;fill-rule:nonzero;stroke:#502c16;stroke-width:1.03764963;stroke-linecap:butt;stroke-linejoin:miter;stroke-miterlimit:4;stroke-dasharray:none;stroke-opacity:1"
               d="M 2432.0312,262.96875 L 2432.0312,273.375 L 2440.3438,273.375 L 2440.3438,262.96875 L 2432.0312,262.96875 z M 2432.1875,273.53125 L 2432.1875,273.71875 L 2440.1875,273.71875 L 2440.1875,273.53125 L 2432.1875,273.53125 z"
               transform="translate(-93,237.36218)"
               id="rect3389" />
          </g>
          <g
             id="g3407"
             transform="matrix(0.717169,0,0,0.7319142,-301.13296,-142.49638)">
            <rect
               y="502.50067"
               x="2341.1931"
               height="6.3189607"
               width="3.9198487"
               id="rect3409"
               style="opacity:1;fill:#502c16;fill-opacity:1;fill-rule:nonzero;stroke:none;stroke-width:2.74293613;stroke-linecap:butt;stroke-linejoin:miter;stroke-miterlimit:4;stroke-dasharray:none;stroke-opacity:1" />
            <path
               id="path3411"
               transform="translate(-93,237.36218)"
               d="M 2432.0312,262.96875 L 2432.0312,273.375 L 2440.3438,273.375 L 2440.3438,262.96875 L 2432.0312,262.96875 z M 2432.1875,273.53125 L 2432.1875,273.71875 L 2440.1875,273.71875 L 2440.1875,273.53125 L 2432.1875,273.53125 z"
               style="opacity:1;fill:none;fill-opacity:1;fill-rule:nonzero;stroke:#502c16;stroke-width:1.03764963;stroke-linecap:butt;stroke-linejoin:miter;stroke-miterlimit:4;stroke-dasharray:none;stroke-opacity:1" />
          </g>
          <g
             transform="matrix(0.5395278,0,0,0.5777265,105.75147,-87.256552)"
             id="g3415">
            <rect
               style="opacity:1;fill:#502c16;fill-opacity:1;fill-rule:nonzero;stroke:none;stroke-width:2.74293613;stroke-linecap:butt;stroke-linejoin:miter;stroke-miterlimit:4;stroke-dasharray:none;stroke-opacity:1"
               id="rect3417"
               width="3.9198487"
               height="6.3189607"
               x="2341.1931"
               y="502.50067" />
            <path
               style="opacity:1;fill:none;fill-opacity:1;fill-rule:nonzero;stroke:#502c16;stroke-width:1.03764963;stroke-linecap:butt;stroke-linejoin:miter;stroke-miterlimit:4;stroke-dasharray:none;stroke-opacity:1"
               d="M 2432.0312,262.96875 L 2432.0312,273.375 L 2440.3438,273.375 L 2440.3438,262.96875 L 2432.0312,262.96875 z M 2432.1875,273.53125 L 2432.1875,273.71875 L 2440.1875,273.71875 L 2440.1875,273.53125 L 2432.1875,273.53125 z"
               transform="translate(-93,237.36218)"
               id="path3419" />
          </g>
          <g
             id="g3421"
             transform="matrix(0.5395278,0,0,0.5777265,114.21648,-87.256552)">
            <rect
               y="502.50067"
               x="2341.1931"
               height="6.3189607"
               width="3.9198487"
               id="rect3423"
               style="opacity:1;fill:#502c16;fill-opacity:1;fill-rule:nonzero;stroke:none;stroke-width:2.74293613;stroke-linecap:butt;stroke-linejoin:miter;stroke-miterlimit:4;stroke-dasharray:none;stroke-opacity:1" />
            <path
               id="path3425"
               transform="translate(-93,237.36218)"
               d="M 2432.0312,262.96875 L 2432.0312,273.375 L 2440.3438,273.375 L 2440.3438,262.96875 L 2432.0312,262.96875 z M 2432.1875,273.53125 L 2432.1875,273.71875 L 2440.1875,273.71875 L 2440.1875,273.53125 L 2432.1875,273.53125 z"
               style="opacity:1;fill:none;fill-opacity:1;fill-rule:nonzero;stroke:#502c16;stroke-width:1.03764963;stroke-linecap:butt;stroke-linejoin:miter;stroke-miterlimit:4;stroke-dasharray:none;stroke-opacity:1" />
          </g>
          <path
             style="fill:#502c16;fill-opacity:1;fill-rule:nonzero;stroke:none;stroke-width:3.94799995;stroke-linecap:butt;stroke-linejoin:miter;stroke-miterlimit:4;stroke-dasharray:none;stroke-opacity:1"
             d="M 1374.2612,185.42486 C 1373.2598,185.42486 1372.4623,186.22329 1372.4623,187.22571 C 1372.4623,187.25242 1372.4612,187.27873 1372.4623,187.30516 L 1372.4623,190.48313 L 1376.0864,190.48313 L 1376.0864,187.30516 C 1376.0876,187.27912 1376.0864,187.25202 1376.0864,187.22571 C 1376.0864,186.22329 1375.2626,185.42486 1374.2612,185.42486 z"
             id="path3428" />
          <path
             transform="matrix(0.8274894,0,0,0.8348995,-647.00527,3.8953692)"
             d="M 2458.3325,301.66458 A 8.0180855,7.8918166 0 1 1 2442.2964,301.66458 A 8.0180855,7.8918166 0 1 1 2458.3325,301.66458 z"
             sodipodi:ry="7.8918166"
             sodipodi:rx="8.0180855"
             sodipodi:cy="301.66458"
             sodipodi:cx="2450.3145"
             id="path3441"
             style="fill:none;fill-opacity:1;fill-rule:nonzero;stroke:#502c16;stroke-width:1;stroke-linecap:butt;stroke-linejoin:miter;stroke-miterlimit:4;stroke-dasharray:none;stroke-opacity:1"
             sodipodi:type="arc" />
          <path
             id="path3430"
             d="M 1380.6874,250.92691 C 1377.9861,250.92691 1375.7934,253.04666 1375.7935,255.66738 C 1375.7935,256.65015 1376.1122,257.55791 1376.64,258.31568 L 1376.64,266.55191 L 1384.9199,266.55191 L 1384.9199,258.07734 C 1385.3471,257.37248 1385.5812,256.54372 1385.5812,255.66738 C 1385.5812,253.04665 1383.3886,250.9269 1380.6874,250.92691 z"
             style="fill:#8d7142;fill-opacity:1;fill-rule:nonzero;stroke:#502c16;stroke-width:0.8469792;stroke-linecap:butt;stroke-linejoin:miter;stroke-miterlimit:4;stroke-dasharray:none;stroke-opacity:1" />
          <g
             transform="matrix(0.8465011,0,0,0.8474576,-614.27768,-201.15437)"
             id="g3470">
            <path
               style="fill:none;fill-rule:evenodd;stroke:#502c16;stroke-width:1px;stroke-linecap:butt;stroke-linejoin:miter;stroke-opacity:1"
               d="M 2449.6429,295.89286 L 2449.6429,294.10714"
               id="path3443"
               transform="translate(-93,237.36218)" />
            <path
               style="fill:none;fill-rule:evenodd;stroke:#502c16;stroke-width:1px;stroke-linecap:butt;stroke-linejoin:miter;stroke-opacity:1"
               d="M 2451.7857,296.42857 L 2452.6786,294.46429"
               id="path3445"
               transform="translate(-93,237.36218)" />
            <path
               style="fill:none;fill-rule:evenodd;stroke:#502c16;stroke-width:1px;stroke-linecap:butt;stroke-linejoin:miter;stroke-opacity:1"
               d="M 2453.75,297.85714 L 2455.1786,296.25"
               id="path3447"
               transform="translate(-93,237.36218)" />
            <path
               style="fill:none;fill-rule:evenodd;stroke:#502c16;stroke-width:1px;stroke-linecap:butt;stroke-linejoin:miter;stroke-opacity:1"
               d="M 2455.3571,299.82143 L 2456.9643,298.92857"
               id="path3449"
               transform="translate(-93,237.36218)" />
            <path
               style="fill:none;fill-rule:evenodd;stroke:#502c16;stroke-width:1px;stroke-linecap:butt;stroke-linejoin:miter;stroke-opacity:1"
               d="M 2455.7143,301.78571 L 2457.8571,301.96429"
               id="path3452"
               transform="translate(-93,237.36218)" />
            <path
               style="fill:none;fill-rule:evenodd;stroke:#502c16;stroke-width:1px;stroke-linecap:butt;stroke-linejoin:miter;stroke-opacity:1"
               d="M 2455.1786,303.75 L 2456.7857,305"
               id="path3454"
               transform="translate(-93,237.36218)" />
            <path
               id="path3460"
               d="M 2354.8571,533.79075 L 2353.9642,531.82647"
               style="fill:none;fill-rule:evenodd;stroke:#502c16;stroke-width:1px;stroke-linecap:butt;stroke-linejoin:miter;stroke-opacity:1" />
            <path
               id="path3462"
               d="M 2352.8928,535.21932 L 2351.4642,533.61218"
               style="fill:none;fill-rule:evenodd;stroke:#502c16;stroke-width:1px;stroke-linecap:butt;stroke-linejoin:miter;stroke-opacity:1" />
            <path
               id="path3464"
               d="M 2351.2857,537.18361 L 2349.6785,536.29075"
               style="fill:none;fill-rule:evenodd;stroke:#502c16;stroke-width:1px;stroke-linecap:butt;stroke-linejoin:miter;stroke-opacity:1" />
            <path
               id="path3466"
               d="M 2350.9285,539.14789 L 2348.7857,539.32647"
               style="fill:none;fill-rule:evenodd;stroke:#502c16;stroke-width:1px;stroke-linecap:butt;stroke-linejoin:miter;stroke-opacity:1" />
            <path
               id="path3468"
               d="M 2351.4642,541.11218 L 2349.8571,542.36218"
               style="fill:none;fill-rule:evenodd;stroke:#502c16;stroke-width:1px;stroke-linecap:butt;stroke-linejoin:miter;stroke-opacity:1" />
          </g>
          <path
             sodipodi:nodetypes="ccccccccccccccccc"
             id="path2600"
             d="M 1346.7374,201.67678 C 1349.5,193.35355 1354.75,192.75 1354.75,192.75 C 1350.7626,197.25 1349.6036,204.66421 1349.6036,204.66421 C 1358.0896,193.82277 1360.2109,212.03076 1360.2109,212.03076 C 1355.9682,200.71705 1348.8972,209.37911 1348.8972,209.37911 C 1363.7464,208.672 1356.4986,222.81414 1356.4986,222.81414 C 1357.5593,210.79333 1348.8972,212.20754 1348.8972,212.20754 C 1359.327,219.98571 1349.7811,230.23876 1349.7811,230.23876 C 1350.8417,217.33406 1346.9526,216.62696 1346.9526,216.62696 C 1342.3564,222.81414 1342.3564,229.88521 1342.3564,229.88521 C 1337.4067,220.8696 1344.4778,215.91985 1344.4778,215.91985 C 1338.4673,214.50563 1336.1693,224.93546 1336.1693,224.93546 C 1333.3408,211.85399 1343.0635,210.79333 1343.0635,210.79333 C 1338.8209,206.37391 1330.5124,216.45018 1330.5124,216.45018 C 1331.3963,202.83837 1343.7706,205.31325 1343.7706,205.31325 C 1335.8157,195.94408 1333.1641,204.60614 1333.1641,204.60614 C 1337.0531,187.98914 1345.3616,202.48482 1346.7374,201.67678 z"
             style="fill:#006e29;fill-opacity:1;fill-rule:evenodd;stroke:#502c17;stroke-width:0.5;stroke-linecap:butt;stroke-linejoin:miter;stroke-miterlimit:4;stroke-dasharray:none;stroke-opacity:1" />
          <path
             sodipodi:nodetypes="ccccccccccccccccc"
             id="path2602"
             d="M 1415.6278,218.04117 C 1415.6278,218.04117 1411.3852,221.04637 1410.5013,228.11744 C 1410.5013,228.11744 1406.2586,218.21795 1414.5671,213.09142 C 1414.5671,213.09142 1410.678,208.84878 1403.0766,222.28381 C 1403.0766,222.28381 1399.5411,209.73267 1415.451,209.02556 C 1415.451,209.02556 1410.8548,196.82796 1400.9553,209.20234 C 1400.9553,209.20234 1404.6676,189.58012 1416.1581,203.3687 C 1417.2188,194.52987 1421.9917,194.35309 1421.9917,194.35309 C 1420.224,197.53507 1420.0472,204.42936 1420.0472,204.42936 C 1425.8808,193.82277 1432.068,208.31845 1432.068,208.31845 C 1424.4666,201.0706 1421.6382,209.20234 1421.6382,209.20234 C 1433.8358,207.08102 1431.7145,220.8696 1431.7145,220.8696 C 1426.4112,209.73267 1421.815,212.91465 1421.815,212.91465 C 1431.5377,217.68762 1427.8254,229.88521 1427.8254,229.88521 C 1424.9969,219.63216 1419.6936,217.51084 1419.6936,217.51084 C 1420.0471,223.8748 1416.5117,229.00133 1416.5117,229.00133 C 1415.451,223.34447 1415.8046,218.04117 1415.6278,218.04117 z"
             style="fill:#006e29;fill-opacity:1;fill-rule:evenodd;stroke:#502c17;stroke-width:0.5;stroke-linecap:butt;stroke-linejoin:miter;stroke-miterlimit:4;stroke-dasharray:none;stroke-opacity:1" />
          <path
             sodipodi:nodetypes="ccccccccccccc"
             id="path2604"
             d="M 1450.0993,236.42595 C 1450.0993,236.42595 1451.1599,230.94587 1447.2708,227.58711 C 1447.2708,227.58711 1448.5083,225.99612 1453.9883,229.53166 C 1453.9883,229.53166 1452.9277,223.34447 1446.3869,223.16769 C 1446.3869,223.16769 1446.3869,218.04117 1452.3973,218.74828 C 1452.3973,218.74828 1447.094,211.50043 1443.3817,220.69282 C 1438.2552,214.15208 1433.3054,223.8748 1433.3054,223.8748 C 1441.2604,219.63216 1440.9068,223.69802 1440.9068,223.69802 C 1432.5983,224.75868 1433.659,231.12265 1433.659,231.12265 C 1439.3159,225.11224 1440.1997,228.11744 1440.1997,228.11744 C 1437.7248,232.71363 1440.023,235.89562 1440.023,235.89562 C 1442.8514,227.41034 1444.4424,229.1781 1444.4424,229.1781 C 1444.9727,227.94067 1449.9225,236.95627 1450.0993,236.42595 z"
             style="fill:#006e29;fill-opacity:1;fill-rule:evenodd;stroke:#502c17;stroke-width:0.5;stroke-linecap:butt;stroke-linejoin:miter;stroke-miterlimit:4;stroke-dasharray:none;stroke-opacity:1" />
        </g>
        <path
           style="fill:#b50128;fill-opacity:1;stroke:#8d7142;stroke-width:3.34388542;stroke-miterlimit:4;stroke-dasharray:none;stroke-opacity:1"
           d="M 364.41855,140.06886 C 363.46235,140.0866 362.46348,140.14068 361.48221,140.22776 C 355.74861,140.73664 347.58215,143.90125 342.93859,147.40467 C 338.84787,150.49121 336.15803,152.37096 335.21427,152.78073 C 335.18472,152.79354 335.13461,152.82375 335.10845,152.83369 C 334.81175,153.05802 334.48018,153.24841 334.12973,153.38984 C 333.90439,153.55736 333.67245,153.69289 333.41545,153.81357 C 333.08963,154.07547 332.72615,154.31857 332.33091,154.47564 C 331.94635,154.78036 331.51201,155.0335 331.03467,155.19069 C 330.71071,155.47694 330.32335,155.69961 329.92363,155.87925 C 326.39339,158.33383 320.28639,161.73418 317.09389,163.05615 C 316.71382,163.36585 316.2705,163.63112 315.79765,163.79768 C 315.48994,164.03408 315.18554,164.23476 314.81884,164.3803 C 314.52062,164.60146 314.19183,164.79907 313.84011,164.93645 C 313.76384,164.99206 313.68207,165.01836 313.60208,165.06886 C 312.96576,165.59433 312.17047,165.93697 311.30061,166.02225 C 309.86325,166.53814 306.4119,168.08919 302.59756,169.91526 C 285.04062,178.3203 276.81162,189.68817 275.69466,207.09746 C 275.20623,214.70779 274.20261,217.50956 268.65812,226.69492 C 256.62189,246.63526 255.65027,252.49426 261.80671,268.29979 C 263.56497,272.81702 265.85281,276.67902 268.97555,280.37606 C 271.50041,283.36506 274.82496,287.69018 276.35603,289.98941 C 279.34502,294.47868 284.68899,306.65831 285.72036,311.36123 C 287.10837,317.68913 296.17821,330.17035 301.46003,332.99788 C 301.84299,333.20279 302.1711,333.45071 302.43876,333.68644 C 302.78422,333.84327 303.09996,334.03093 303.39107,334.26907 C 303.50518,334.33687 303.62818,334.37657 303.73501,334.45445 C 304.04356,334.56995 304.3389,334.69781 304.608,334.87818 C 304.89073,334.99671 305.15442,335.15444 305.40151,335.32839 C 305.84542,335.4844 306.25572,335.73415 306.61844,336.01695 C 307.66548,336.41796 308.83577,336.9013 310.08376,337.52649 C 316.00766,340.49454 322.21133,342.16903 335.16136,344.33263 C 343.83986,345.78253 346.4696,346.64418 355.90064,351.03284 C 364.62197,355.09119 369.9953,357.19891 375.13204,358.55403 C 384.58221,361.04701 402.11443,357.64843 410.97611,351.61547 C 411.906,350.98254 412.8225,350.42779 413.64784,349.94704 C 413.66646,349.92975 413.68187,349.91104 413.70083,349.89407 C 413.98356,349.63958 414.30701,349.40345 414.65315,349.23199 C 414.67329,349.21661 414.71198,349.22054 414.73246,349.20551 C 414.77563,349.16207 414.81991,349.11463 414.86477,349.0731 C 414.88119,349.06204 414.90109,349.05743 414.91759,349.04661 C 415.16875,348.8203 415.43692,348.599 415.73768,348.4375 C 416.0056,348.18547 416.33616,348.03071 416.66359,347.85488 C 416.68949,347.82883 416.71598,347.80077 416.7429,347.77543 C 417.0264,347.50871 417.34595,347.29459 417.69522,347.11335 C 419.37611,345.51062 423.75117,342.4775 430.10179,338.58581 C 431.38306,337.80057 436.533,335.86696 441.52956,334.26907 C 451.08664,331.21265 460.35286,325.90094 465.68125,320.44492 C 469.85619,316.1702 474.69547,307.30906 475.70704,302.11865 C 476.19979,299.5895 477.21652,293.37931 477.95551,288.32098 C 479.71192,276.29728 480.69699,273.23819 487.34643,258.63348 C 493.78204,244.49942 493.60461,235.54373 486.63215,221.66314 C 486.23861,220.87991 486.02005,220.44209 485.70625,219.80933 C 485.32448,219.43592 485.02718,219.00389 484.80692,218.51166 C 484.79897,218.50255 484.78822,218.49435 484.78043,218.48518 C 484.39485,218.11972 484.05227,217.70121 483.82812,217.21399 C 483.57383,216.9814 483.38362,216.70731 483.19324,216.4195 C 482.93049,216.15895 482.71835,215.86717 482.53187,215.54556 C 482.33624,215.34119 482.15424,215.09724 482.00281,214.857 C 481.73929,214.60893 481.53325,214.31748 481.34152,214.00954 C 480.96559,213.65341 480.66508,213.23708 480.44211,212.76484 C 480.11028,212.43588 479.82907,212.04928 479.62211,211.62607 C 479.53187,211.49387 479.45882,211.34469 479.38398,211.20234 C 479.13799,210.95843 478.95532,210.65269 478.7756,210.35488 C 478.62433,210.17398 478.47383,209.97447 478.35235,209.77225 C 475.57236,206.88424 472.34084,203.05943 470.38991,200.10594 C 468.41536,197.11694 465.30676,191.29435 463.51209,187.15573 C 459.81838,178.6375 457.1795,174.25561 453.16895,170.02119 C 452.35283,169.1594 451.64499,168.26586 451.13201,167.55827 C 451.12236,167.55132 451.115,167.53882 451.10551,167.53179 C 450.69936,167.22972 450.34807,166.87384 450.07388,166.44598 C 449.74341,166.23122 449.43181,165.94708 449.17448,165.65149 C 449.12005,165.62953 449.06875,165.59619 449.01576,165.57204 C 448.68816,165.29647 448.33246,165.07829 447.93114,164.90997 C 447.91344,164.90253 447.89609,164.89069 447.87831,164.88348 C 447.72738,164.76209 447.56926,164.6393 447.40207,164.5392 C 447.274,164.42969 447.119,164.34192 446.97882,164.24789 C 446.98187,164.23863 446.97561,164.23075 446.97882,164.22141 C 446.91449,164.18921 446.8554,164.15091 446.79369,164.11547 C 446.51121,163.95314 446.26624,163.75294 446.02651,163.53285 C 446.02033,163.53037 446.00653,163.53539 446.0001,163.53285 C 445.56449,163.36117 445.04152,163.03561 444.57163,162.60594 C 441.71765,159.99599 430.59556,155.57149 425.8957,155.1642 C 423.48215,154.95504 421.50574,154.52523 421.50447,154.2373 C 421.50337,153.94936 418.2247,153.68731 414.2034,153.65467 C 405.59533,153.58479 397.97809,151.40525 385.36946,145.39196 C 377.34827,141.56642 371.11218,139.94453 364.41855,140.06886 z M 375.79341,167.61124 C 424.32755,167.61124 463.69722,204.4528 463.69722,249.86759 C 463.6973,295.28237 424.32772,332.15043 375.79341,332.15043 C 327.25902,332.15042 287.86311,295.28238 287.86311,249.86759 C 287.86311,204.4528 327.2591,167.61124 375.79341,167.61124 z"
           id="path3519" />
      </g>
    </g>
  </g>
</svg>
